HIERARCHY
ROOT Hips
{
	OFFSET 0.000000 0.000000 0.000000
	CHANNELS 6 Xposition Yposition Zposition Xrotation Yrotation Zrotation
	JOINT LeftUpLeg_virtual
	{
		OFFSET 0.000000 0.000000 0.000000
		CHANNELS 3 Xrotation Yrotation Zrotation
		JOINT LeftUpLeg
		{
			OFFSET 15.427100 -6.655098 0.678600
			CHANNELS 3 Xrotation Yrotation Zrotation
			JOINT LeftLeg
			{
				OFFSET 4.081073 -39.591068 13.024000
				CHANNELS 3 Xrotation Yrotation Zrotation
				JOINT LeftFoot
				{
					OFFSET -4.081074 -37.707932 -15.979700
					CHANNELS 3 Xrotation Yrotation Zrotation
					JOINT LeftToeBase
					{
						OFFSET 5.346399 -15.068900 20.645000
						CHANNELS 3 Xrotation Yrotation Zrotation
						JOINT LeftToe_End
						{
							OFFSET 2.754700 0.931300 11.300900
							CHANNELS 3 Xrotation Yrotation Zrotation
							End Site
							{
								OFFSET 0 0 0
							}
						}
					}
				}
			}
		}
	}
	JOINT RightUpLeg_virtual
	{
		OFFSET 0.000000 0.000000 0.000000
		CHANNELS 3 Xrotation Yrotation Zrotation
		JOINT RightUpLeg
		{
			OFFSET -15.569500 -6.655098 0.678600
			CHANNELS 3 Xrotation Yrotation Zrotation
			JOINT RightLeg
			{
				OFFSET -4.081825 -39.591045 13.023800
				CHANNELS 3 Xrotation Yrotation Zrotation
				JOINT RightFoot
				{
					OFFSET 4.081824 -37.707954 -15.979600
					CHANNELS 3 Xrotation Yrotation Zrotation
					JOINT RightToeBase
					{
						OFFSET -5.346400 -15.068900 20.645000
						CHANNELS 3 Xrotation Yrotation Zrotation
						JOINT RightToe_End
						{
							OFFSET -2.754700 0.931300 11.300900
							CHANNELS 3 Xrotation Yrotation Zrotation
							End Site
							{
								OFFSET 0 0 0
							}
						}
					}
				}
			}
		}
	}
	JOINT Spine_virtual
	{
		OFFSET 0.000000 0.000000 0.000000
		CHANNELS 3 Xrotation Yrotation Zrotation
		JOINT Spine
		{
			OFFSET -0.279200 12.230698 -2.892100
			CHANNELS 3 Xrotation Yrotation Zrotation
			JOINT Spine1
			{
				OFFSET -0.232667 10.192268 -1.242267
				CHANNELS 3 Xrotation Yrotation Zrotation
				JOINT Spine1_split
				{
					OFFSET -0.232667 10.192268 -1.242267
					CHANNELS 3 Xrotation Yrotation Zrotation
					JOINT Spine2
					{
						OFFSET -0.232667 10.192268 -1.242267
						CHANNELS 3 Xrotation Yrotation Zrotation
						JOINT Neck_virtual
						{
							OFFSET 0.000000 0.000000 0.000000
							CHANNELS 3 Xrotation Yrotation Zrotation
							JOINT Neck
							{
								OFFSET -0.418800 17.814194 8.416900
								CHANNELS 3 Xrotation Yrotation Zrotation
								JOINT Head
								{
									OFFSET 0.000000 7.031097 3.806800
									CHANNELS 3 Xrotation Yrotation Zrotation
									JOINT HeadTop_End
									{
										OFFSET 0.000000 24.646606 12.978600
										CHANNELS 3 Xrotation Yrotation Zrotation
										End Site
										{
											OFFSET 0 0 0
										}
									}
								}
							}
						}
						JOINT LeftShoulder_virtual
						{
							OFFSET 0.000000 0.000000 0.000000
							CHANNELS 3 Xrotation Yrotation Zrotation
							JOINT LeftShoulder
							{
								OFFSET 8.476499 7.247704 -3.868750
								CHANNELS 3 Xrotation Yrotation Zrotation
								JOINT LeftShoulder_split
								{
									OFFSET 8.476499 7.247704 -3.868750
									CHANNELS 3 Xrotation Yrotation Zrotation
									JOINT LeftArm
									{
										OFFSET 9.308998 -2.777710 0.208600
										CHANNELS 3 Xrotation Yrotation Zrotation
										JOINT LeftForeArm
										{
											OFFSET 29.972298 0.000000 0.000000
											CHANNELS 3 Xrotation Yrotation Zrotation
											JOINT LeftHand
											{
												OFFSET 26.026505 0.000000 0.000000
												CHANNELS 3 Xrotation Yrotation Zrotation
												End Site
												{
													OFFSET 0 0 0
												}
											}
										}
									}
								}
							}
						}
						JOINT RightShoulder_virtual
						{
							OFFSET 0.000000 0.000000 0.000000
							CHANNELS 3 Xrotation Yrotation Zrotation
							JOINT RightShoulder
							{
								OFFSET -7.570500 7.247704 -3.868750
								CHANNELS 3 Xrotation Yrotation Zrotation
								JOINT RightShoulder_split
								{
									OFFSET -7.570500 7.247704 -3.868750
									CHANNELS 3 Xrotation Yrotation Zrotation
									JOINT RightArm
									{
										OFFSET -9.308998 -2.777710 0.208500
										CHANNELS 3 Xrotation Yrotation Zrotation
										JOINT RightForeArm
										{
											OFFSET -29.972300 0.000000 0.000000
											CHANNELS 3 Xrotation Yrotation Zrotation
											JOINT RightHand
											{
												OFFSET -26.026505 0.000000 0.000000
												CHANNELS 3 Xrotation Yrotation Zrotation
												End Site
												{
													OFFSET 0 0 0
												}
											}
										}
									}
								}
							}
						}
					}
				}
			}
		}
	}
}
MOTION
Frames: 7
Frame Time: 0.03333333
0.230365 70.301308 0.256134 0.000000 0.000000 0.000000 12.363697 -52.802055 11.506075 -67.316596 18.925870 47.562340 42.978013 -16.927020 2.524062 11.312358 -5.900323 -15.331285 -10.366293 -7.377032 0.820315 0.000000 0.000000 0.000000 11.806431 -52.201449 11.306702 -22.182656 3.040753 -36.490723 44.837771 14.358260 -5.863403 -26.999719 -8.799829 29.365739 3.657348 3.458066 3.307868 0.000000 0.000000 0.000000 12.130422 -47.594551 10.595485 6.900480 4.135298 -4.103199 6.623558 7.282441 -4.699844 0.206839 -2.270996 0.638660 0.000000 0.000000 0.000000 -2.963007 7.287652 -3.377988 0.093011 13.917217 -1.362381 -2.659870 16.746283 -1.854654 0.000000 0.000000 0.000000 -4.175410 6.601158 -2.781831 -0.117203 -14.766927 0.923266 -1.125552 -1.947867 -0.207732 -21.083783 1.208953 -48.571374 -19.853555 -13.622427 -9.574259 0.000000 0.000000 0.000000 -5.170316 6.552250 -2.555947 -0.996174 18.754077 -1.153929 -3.547671 -4.188737 6.859278 -0.951290 -22.274227 54.765003 -23.611185 44.181232 24.345169 0.000000 0.000000 0.000000 
0.556746 70.736710 0.201183 0.000000 0.000000 0.000000 12.126044 -52.624658 11.456746 -66.081725 18.352426 47.112241 42.149067 -17.660270 1.747875 9.543729 -5.018348 -15.590743 -8.256896 -7.159490 0.075612 0.000000 0.000000 0.000000 11.575727 -52.834443 11.485334 -23.017285 2.789963 -36.317926 45.010373 13.789335 -5.667700 -26.908531 -8.958663 27.688190 5.101803 3.576191 3.483392 0.000000 0.000000 0.000000 12.179934 -47.748828 10.542453 6.712053 4.128389 -4.316846 6.577255 7.206316 -4.837585 0.070864 -2.320268 0.702618 0.000000 0.000000 0.000000 -3.145768 7.273634 -3.434776 0.128001 14.556899 -2.112428 -2.417282 17.366186 -2.407297 0.000000 0.000000 0.000000 -4.335515 6.588127 -2.848890 -0.271011 -14.372689 0.497260 -1.557864 -1.838222 0.074223 -20.279224 1.730161 -47.748005 -19.874097 -13.746029 -9.850371 0.000000 0.000000 0.000000 -5.166242 6.506268 -2.687508 -0.889657 18.698340 -0.748298 -5.235114 -3.563124 6.488197 -1.495738 -23.625348 54.454947 -23.674913 44.283948 24.777911 0.000000 0.000000 0.000000 
1.139653 71.462105 0.072594 0.000000 0.000000 0.000000 11.820291 -54.002737 11.682634 -64.175556 17.266705 47.476508 41.870023 -18.765088 0.873576 8.619741 -3.644949 -18.365428 -3.664321 -6.759746 -1.085840 0.000000 0.000000 0.000000 11.193626 -55.044498 11.866843 -25.834736 3.050454 -35.619174 44.889294 13.735785 -5.387459 -24.762108 -8.451031 26.768818 5.131456 3.663906 3.164317 0.000000 0.000000 0.000000 12.331431 -49.614077 10.921479 7.153086 3.983788 -4.399500 6.734225 7.110080 -5.081044 -0.021536 -2.542880 0.950283 0.000000 0.000000 0.000000 -3.133460 7.186028 -3.617952 -0.099515 15.389876 -3.154964 -2.181708 18.149262 -3.782438 0.000000 0.000000 0.000000 -4.326809 6.597670 -3.073917 -0.512135 -13.398239 -0.902953 -2.047689 -2.167589 0.398073 -19.716550 2.727082 -46.693902 -18.642974 -14.312388 -9.570957 0.000000 0.000000 0.000000 -4.963259 6.495095 -2.949195 -0.803126 18.176076 -0.014335 -6.458235 -3.628375 5.831216 -2.874112 -23.341944 52.775369 -24.421480 45.472753 26.251050 0.000000 0.000000 0.000000 
1.684021 72.138863 -0.090050 0.000000 0.000000 0.000000 11.629488 -57.059202 12.236732 -61.260499 16.711005 48.528740 41.196798 -19.595611 -0.089246 8.094619 -1.522072 -22.014299 -1.024596 -6.479583 -1.343416 0.000000 0.000000 0.000000 11.059799 -58.796837 12.630986 -30.379712 3.743657 -34.144406 44.794669 14.170502 -5.096160 -20.889433 -7.230793 26.419120 3.950471 3.686591 2.585875 0.000000 0.000000 0.000000 12.572135 -53.208734 11.758479 8.017255 3.662050 -4.333862 7.030945 6.923810 -5.387482 -0.087108 -2.724131 1.548269 0.000000 0.000000 0.000000 -2.905219 7.009594 -3.904173 -0.471572 16.459009 -4.457165 -2.030527 19.010845 -5.744546 0.000000 0.000000 0.000000 -4.179174 6.558042 -3.444953 -0.738085 -11.923620 -2.977039 -2.348289 -2.766931 0.517505 -19.454822 3.922092 -45.689464 -16.213991 -14.595814 -8.678880 0.000000 0.000000 0.000000 -4.687936 6.412860 -3.317499 -0.706391 17.094522 0.841156 -6.915660 -3.901223 5.110978 -4.470466 -21.013763 49.881558 -25.744554 47.809835 28.671191 0.000000 0.000000 0.000000 
2.042573 72.519020 -0.475903 0.000000 0.000000 0.000000 12.395382 -61.709789 13.611516 -56.949885 17.962703 50.188097 39.497522 -18.997230 -1.219011 5.645880 2.330878 -23.869886 -1.920888 -6.360155 -0.485229 0.000000 0.000000 0.000000 11.630228 -63.741525 13.959892 -36.162846 4.589267 -31.723049 44.437173 14.954091 -4.825228 -16.087503 -5.434640 26.082151 2.761589 3.654818 1.997213 0.000000 0.000000 0.000000 13.327654 -58.213566 13.281747 9.133677 3.127629 -4.068128 7.430272 6.570892 -5.720952 -0.230682 -3.044068 2.058397 0.000000 0.000000 0.000000 -2.558949 6.693729 -4.225091 -0.844905 17.713819 -5.858539 -2.035431 19.728585 -7.984547 0.000000 0.000000 0.000000 -3.938470 6.363557 -3.919445 -0.867656 -10.098022 -5.176445 -2.554864 -3.324341 0.276796 -19.247482 5.133113 -44.856045 -12.998081 -14.305908 -7.383826 0.000000 0.000000 0.000000 -4.413822 6.148396 -3.746495 -0.580640 15.449661 1.563687 -6.435200 -4.084311 4.383708 -5.635385 -16.766431 46.223835 -27.515712 51.091782 31.855056 0.000000 0.000000 0.000000 
2.180888 72.526215 -0.964058 0.000000 0.000000 0.000000 14.985213 -67.644677 16.516168 -51.783520 21.124071 52.204249 37.442472 -16.854749 -2.181152 0.931894 7.583343 -23.526897 -4.164982 -6.198336 0.340973 0.000000 0.000000 0.000000 13.738084 -69.621805 16.545580 -42.582777 5.375104 -28.415948 43.749083 15.957760 -4.582227 -11.167626 -3.278404 25.429588 2.294378 3.580298 1.584104 0.000000 0.000000 0.000000 15.344450 -64.255100 15.995243 10.336488 2.339056 -3.634573 7.863517 5.976835 -6.033091 -0.447220 -3.552430 2.162160 0.000000 0.000000 0.000000 -2.210440 6.147942 -4.505814 -1.161819 19.069533 -7.136909 -2.302442 20.175949 -10.163438 0.000000 0.000000 0.000000 -3.629021 5.891701 -4.426223 -0.862676 -8.033903 -6.936750 -2.491676 -3.371521 -0.133816 -18.793735 6.358973 -44.294989 -9.487976 -13.615600 -6.012188 0.000000 0.000000 0.000000 -4.127282 5.590520 -4.190652 -0.410720 13.295832 1.811527 -5.247162 -4.124382 3.736653 -6.122983 -11.110691 42.101303 -29.709130 54.886963 35.660558 0.000000 0.000000 0.000000 
2.085423 72.290024 -1.645016 0.000000 0.000000 0.000000 21.462754 -74.105258 23.072043 -47.074644 25.447038 54.523805 36.031717 -14.142655 -2.678018 -4.335079 12.615455 -22.883813 -5.133426 -5.754862 0.228328 0.000000 0.000000 0.000000 19.419300 -75.789172 22.397881 -48.759467 5.908554 -24.562083 42.579078 17.152176 -4.370442 -6.780550 -0.784701 24.442727 2.735172 3.532531 1.340296 0.000000 0.000000 0.000000 20.235977 -70.566366 21.259486 11.532576 1.345631 -3.104428 8.327733 5.107281 -6.253311 -0.647398 -3.910278 1.862303 0.000000 0.000000 0.000000 -1.902891 5.347438 -4.693943 -1.224285 20.378370 -8.135087 -2.952660 20.428266 -12.082740 0.000000 0.000000 0.000000 -3.169592 5.080290 -4.854201 -0.719799 -5.788015 -7.955208 -2.304501 -2.926670 -0.753827 -17.540083 7.654057 -44.005133 -6.102231 -13.089506 -4.881360 0.000000 0.000000 0.000000 -3.825079 4.706032 -4.573086 -0.239523 10.628843 1.504694 -3.760960 -4.164025 3.088896 -6.221114 -4.998998 37.600178 -33.088250 58.995957 40.598347 0.000000 0.000000 0.000000 
